<mxfile host="app.diagrams.net" modified="2024-04-10T17:40:46.556Z" agent="Mozilla/5.0 (X11; CrOS x86_64 14541.0.0) AppleWebKit/537.36 (KHTML, like Gecko) Chrome/122.0.0.0 Safari/537.36" etag="_Fvws8MYnOaCW1yRt5WU" version="24.2.3" type="device">
  <diagram id="C5RBs43oDa-KdzZeNtuy" name="Page-1">
    <mxGraphModel dx="1050" dy="1726" grid="1" gridSize="10" guides="1" tooltips="1" connect="1" arrows="1" fold="1" page="1" pageScale="1" pageWidth="827" pageHeight="1169" math="0" shadow="0">
      <root>
        <mxCell id="WIyWlLk6GJQsqaUBKTNV-0" />
        <mxCell id="WIyWlLk6GJQsqaUBKTNV-1" parent="WIyWlLk6GJQsqaUBKTNV-0" />
        <mxCell id="aBLBJTkgV2OwhLsu4-va-2" value="User&lt;div&gt;&lt;br&gt;&lt;/div&gt;" style="shape=umlActor;verticalLabelPosition=bottom;verticalAlign=top;html=1;outlineConnect=0;" vertex="1" parent="WIyWlLk6GJQsqaUBKTNV-1">
          <mxGeometry x="110" y="155" width="30" height="60" as="geometry" />
        </mxCell>
        <mxCell id="aBLBJTkgV2OwhLsu4-va-4" value="RDS" style="rounded=0;whiteSpace=wrap;html=1;verticalAlign=top;" vertex="1" parent="WIyWlLk6GJQsqaUBKTNV-1">
          <mxGeometry x="495" y="320" width="110" height="160" as="geometry" />
        </mxCell>
        <mxCell id="aBLBJTkgV2OwhLsu4-va-5" value="Users" style="shape=cylinder3;whiteSpace=wrap;html=1;boundedLbl=1;backgroundOutline=1;size=15;" vertex="1" parent="WIyWlLk6GJQsqaUBKTNV-1">
          <mxGeometry x="520" y="370" width="60" height="82.5" as="geometry" />
        </mxCell>
        <mxCell id="aBLBJTkgV2OwhLsu4-va-7" value="Redshift" style="rounded=0;whiteSpace=wrap;html=1;verticalAlign=top;" vertex="1" parent="WIyWlLk6GJQsqaUBKTNV-1">
          <mxGeometry x="780" y="90" width="120" height="160" as="geometry" />
        </mxCell>
        <mxCell id="aBLBJTkgV2OwhLsu4-va-8" value="Data" style="shape=cylinder3;whiteSpace=wrap;html=1;boundedLbl=1;backgroundOutline=1;size=15;" vertex="1" parent="WIyWlLk6GJQsqaUBKTNV-1">
          <mxGeometry x="800" y="142.5" width="80" height="80" as="geometry" />
        </mxCell>
        <mxCell id="aBLBJTkgV2OwhLsu4-va-9" value="API Gateway" style="ellipse;whiteSpace=wrap;html=1;" vertex="1" parent="WIyWlLk6GJQsqaUBKTNV-1">
          <mxGeometry x="210" y="155" width="120" height="80" as="geometry" />
        </mxCell>
        <mxCell id="aBLBJTkgV2OwhLsu4-va-17" value="Lambda" style="rounded=0;whiteSpace=wrap;html=1;verticalAlign=top;" vertex="1" parent="WIyWlLk6GJQsqaUBKTNV-1">
          <mxGeometry x="414" y="65" width="300" height="245" as="geometry" />
        </mxCell>
        <mxCell id="aBLBJTkgV2OwhLsu4-va-10" value="Cloudwatch logs" style="ellipse;shape=cloud;whiteSpace=wrap;html=1;" vertex="1" parent="WIyWlLk6GJQsqaUBKTNV-1">
          <mxGeometry x="330" y="-60" width="120" height="80" as="geometry" />
        </mxCell>
        <mxCell id="aBLBJTkgV2OwhLsu4-va-12" value="" style="endArrow=classic;startArrow=classic;html=1;rounded=0;" edge="1" parent="WIyWlLk6GJQsqaUBKTNV-1">
          <mxGeometry width="50" height="50" relative="1" as="geometry">
            <mxPoint x="150" y="200" as="sourcePoint" />
            <mxPoint x="220" y="200" as="targetPoint" />
          </mxGeometry>
        </mxCell>
        <mxCell id="aBLBJTkgV2OwhLsu4-va-13" value="Endpoint handler a" style="rounded=0;whiteSpace=wrap;html=1;" vertex="1" parent="WIyWlLk6GJQsqaUBKTNV-1">
          <mxGeometry x="460" y="110" width="180" height="60" as="geometry" />
        </mxCell>
        <mxCell id="aBLBJTkgV2OwhLsu4-va-14" value="Endpoint handler a" style="rounded=0;whiteSpace=wrap;html=1;" vertex="1" parent="WIyWlLk6GJQsqaUBKTNV-1">
          <mxGeometry x="470" y="120" width="180" height="60" as="geometry" />
        </mxCell>
        <mxCell id="aBLBJTkgV2OwhLsu4-va-15" value="Endpoint handler a" style="rounded=0;whiteSpace=wrap;html=1;" vertex="1" parent="WIyWlLk6GJQsqaUBKTNV-1">
          <mxGeometry x="480" y="130" width="180" height="60" as="geometry" />
        </mxCell>
        <mxCell id="aBLBJTkgV2OwhLsu4-va-16" value="Endpoint handlers" style="rounded=0;whiteSpace=wrap;html=1;" vertex="1" parent="WIyWlLk6GJQsqaUBKTNV-1">
          <mxGeometry x="490" y="140" width="180" height="60" as="geometry" />
        </mxCell>
        <mxCell id="aBLBJTkgV2OwhLsu4-va-18" value="Authenticator" style="rounded=0;whiteSpace=wrap;html=1;" vertex="1" parent="WIyWlLk6GJQsqaUBKTNV-1">
          <mxGeometry x="460" y="230" width="200" height="60" as="geometry" />
        </mxCell>
        <mxCell id="aBLBJTkgV2OwhLsu4-va-19" value="" style="endArrow=classic;startArrow=classic;html=1;rounded=0;entryX=0;entryY=0.5;entryDx=0;entryDy=0;entryPerimeter=0;exitX=1.02;exitY=0.637;exitDx=0;exitDy=0;exitPerimeter=0;" edge="1" parent="WIyWlLk6GJQsqaUBKTNV-1" source="aBLBJTkgV2OwhLsu4-va-16" target="aBLBJTkgV2OwhLsu4-va-8">
          <mxGeometry width="50" height="50" relative="1" as="geometry">
            <mxPoint x="400" y="320" as="sourcePoint" />
            <mxPoint x="450" y="270" as="targetPoint" />
          </mxGeometry>
        </mxCell>
        <mxCell id="aBLBJTkgV2OwhLsu4-va-20" value="" style="endArrow=classic;startArrow=classic;html=1;rounded=0;exitX=0.397;exitY=-0.005;exitDx=0;exitDy=0;exitPerimeter=0;entryX=0.5;entryY=1;entryDx=0;entryDy=0;" edge="1" parent="WIyWlLk6GJQsqaUBKTNV-1" source="aBLBJTkgV2OwhLsu4-va-5" target="aBLBJTkgV2OwhLsu4-va-18">
          <mxGeometry width="50" height="50" relative="1" as="geometry">
            <mxPoint x="430" y="300" as="sourcePoint" />
            <mxPoint x="480" y="250" as="targetPoint" />
          </mxGeometry>
        </mxCell>
        <mxCell id="aBLBJTkgV2OwhLsu4-va-21" value="" style="endArrow=classic;startArrow=classic;html=1;rounded=0;entryX=0;entryY=0.5;entryDx=0;entryDy=0;" edge="1" parent="WIyWlLk6GJQsqaUBKTNV-1" target="aBLBJTkgV2OwhLsu4-va-13">
          <mxGeometry width="50" height="50" relative="1" as="geometry">
            <mxPoint x="330" y="190" as="sourcePoint" />
            <mxPoint x="380" y="140" as="targetPoint" />
          </mxGeometry>
        </mxCell>
        <mxCell id="aBLBJTkgV2OwhLsu4-va-22" value="" style="endArrow=classic;startArrow=classic;html=1;rounded=0;exitX=1;exitY=0.5;exitDx=0;exitDy=0;entryX=0;entryY=0.5;entryDx=0;entryDy=0;" edge="1" parent="WIyWlLk6GJQsqaUBKTNV-1" source="aBLBJTkgV2OwhLsu4-va-9" target="aBLBJTkgV2OwhLsu4-va-18">
          <mxGeometry width="50" height="50" relative="1" as="geometry">
            <mxPoint x="430" y="300" as="sourcePoint" />
            <mxPoint x="480" y="250" as="targetPoint" />
          </mxGeometry>
        </mxCell>
        <mxCell id="aBLBJTkgV2OwhLsu4-va-23" value="" style="endArrow=classic;html=1;rounded=0;entryX=0.657;entryY=0.971;entryDx=0;entryDy=0;entryPerimeter=0;" edge="1" parent="WIyWlLk6GJQsqaUBKTNV-1" target="aBLBJTkgV2OwhLsu4-va-10">
          <mxGeometry width="50" height="50" relative="1" as="geometry">
            <mxPoint x="480" y="110" as="sourcePoint" />
            <mxPoint x="530" y="60" as="targetPoint" />
          </mxGeometry>
        </mxCell>
      </root>
    </mxGraphModel>
  </diagram>
</mxfile>
